<?xml version="1.0" encoding="UTF-8" standalone="no"?>
<!DOCTYPE svg PUBLIC "-//W3C//DTD SVG 1.1//EN"
 "http://www.w3.org/Graphics/SVG/1.1/DTD/svg11.dtd">
<!-- Generated by graphviz version 2.47.3 (20210619.1520)
 -->
<!-- Title: dependencies Pages: 1 -->
<svg width="2244pt" height="247pt"
 viewBox="0.00 0.00 2244.00 246.80" xmlns="http://www.w3.org/2000/svg" xmlns:xlink="http://www.w3.org/1999/xlink">
<g id="graph0" class="graph" transform="scale(1 1) rotate(0) translate(4 242.8)">
<title>dependencies</title>
<polygon fill="white" stroke="transparent" points="-4,4 -4,-242.8 2240,-242.8 2240,4 -4,4"/>
<text text-anchor="middle" x="1118" y="-8.2" font-family="sans-serif" font-size="14.00">dependencies</text>
<g id="clust1" class="cluster">
<title>cluster_AppModule</title>
<polygon fill="none" stroke="black" stroke-dasharray="1,5" points="8,-32.8 8,-230.8 2228,-230.8 2228,-32.8 8,-32.8"/>
</g>
<g id="clust15" class="cluster">
<title>cluster_AppModule_imports</title>
<polygon fill="none" stroke="black" points="2076,-40.8 2076,-92.8 2220,-92.8 2220,-40.8 2076,-40.8"/>
</g>
<g id="clust17" class="cluster">
<title>cluster_AppModule_bootstrap</title>
<polygon fill="none" stroke="black" points="1113,-170.8 1113,-222.8 1237,-222.8 1237,-170.8 1113,-170.8"/>
</g>
<g id="clust2" class="cluster">
<title>cluster_AppModule_declarations</title>
<polygon fill="none" stroke="black" points="16,-40.8 16,-92.8 2068,-92.8 2068,-40.8 16,-40.8"/>
</g>
<!-- AppComponent -->
<g id="node1" class="node">
<title>AppComponent</title>
<polygon fill="#ffffb3" stroke="black" points="2059.94,-84.8 1954.06,-84.8 1954.06,-48.8 2059.94,-48.8 2059.94,-84.8"/>
<text text-anchor="middle" x="2007" y="-62.6" font-family="Times,serif" font-size="14.00">AppComponent</text>
</g>
<!-- AppModule -->
<g id="node13" class="node">
<title>AppModule</title>
<polygon fill="#8dd3c7" stroke="black" points="1216.66,-149.8 1213.66,-153.8 1192.66,-153.8 1189.66,-149.8 1133.34,-149.8 1133.34,-113.8 1216.66,-113.8 1216.66,-149.8"/>
<text text-anchor="middle" x="1175" y="-127.6" font-family="Times,serif" font-size="14.00">AppModule</text>
</g>
<!-- AppComponent&#45;&gt;AppModule -->
<g id="edge1" class="edge">
<title>AppComponent&#45;&gt;AppModule</title>
<path fill="none" stroke="black" d="M2007,-84.84C2007,-106.46 2007,-139.8 2007,-139.8 2007,-139.8 1226.83,-139.8 1226.83,-139.8"/>
<polygon fill="black" stroke="black" points="1226.83,-136.3 1216.83,-139.8 1226.83,-143.3 1226.83,-136.3"/>
</g>
<!-- DirectorViewComponent -->
<g id="node2" class="node">
<title>DirectorViewComponent</title>
<polygon fill="#ffffb3" stroke="black" points="1936.29,-84.8 1777.71,-84.8 1777.71,-48.8 1936.29,-48.8 1936.29,-84.8"/>
<text text-anchor="middle" x="1857" y="-62.6" font-family="Times,serif" font-size="14.00">DirectorViewComponent</text>
</g>
<!-- DirectorViewComponent&#45;&gt;AppModule -->
<g id="edge2" class="edge">
<title>DirectorViewComponent&#45;&gt;AppModule</title>
<path fill="none" stroke="black" d="M1857,-85.02C1857,-105.17 1857,-134.8 1857,-134.8 1857,-134.8 1226.89,-134.8 1226.89,-134.8"/>
<polygon fill="black" stroke="black" points="1226.89,-131.3 1216.89,-134.8 1226.89,-138.3 1226.89,-131.3"/>
</g>
<!-- EditProfileComponent -->
<g id="node3" class="node">
<title>EditProfileComponent</title>
<polygon fill="#ffffb3" stroke="black" points="1759.27,-84.8 1616.73,-84.8 1616.73,-48.8 1759.27,-48.8 1759.27,-84.8"/>
<text text-anchor="middle" x="1688" y="-62.6" font-family="Times,serif" font-size="14.00">EditProfileComponent</text>
</g>
<!-- EditProfileComponent&#45;&gt;AppModule -->
<g id="edge3" class="edge">
<title>EditProfileComponent&#45;&gt;AppModule</title>
<path fill="none" stroke="black" d="M1688,-85.02C1688,-103.63 1688,-129.8 1688,-129.8 1688,-129.8 1226.98,-129.8 1226.98,-129.8"/>
<polygon fill="black" stroke="black" points="1226.98,-126.3 1216.98,-129.8 1226.98,-133.3 1226.98,-126.3"/>
</g>
<!-- FavoriteMoviesComponent -->
<g id="node4" class="node">
<title>FavoriteMoviesComponent</title>
<polygon fill="#ffffb3" stroke="black" points="1598.98,-84.8 1429.02,-84.8 1429.02,-48.8 1598.98,-48.8 1598.98,-84.8"/>
<text text-anchor="middle" x="1514" y="-62.6" font-family="Times,serif" font-size="14.00">FavoriteMoviesComponent</text>
</g>
<!-- FavoriteMoviesComponent&#45;&gt;AppModule -->
<g id="edge4" class="edge">
<title>FavoriteMoviesComponent&#45;&gt;AppModule</title>
<path fill="none" stroke="black" d="M1514,-84.83C1514,-101.86 1514,-124.8 1514,-124.8 1514,-124.8 1226.91,-124.8 1226.91,-124.8"/>
<polygon fill="black" stroke="black" points="1226.91,-121.3 1216.91,-124.8 1226.91,-128.3 1226.91,-121.3"/>
</g>
<!-- GenreViewComponent -->
<g id="node5" class="node">
<title>GenreViewComponent</title>
<polygon fill="#ffffb3" stroke="black" points="1410.85,-84.8 1265.15,-84.8 1265.15,-48.8 1410.85,-48.8 1410.85,-84.8"/>
<text text-anchor="middle" x="1338" y="-62.6" font-family="Times,serif" font-size="14.00">GenreViewComponent</text>
</g>
<!-- GenreViewComponent&#45;&gt;AppModule -->
<g id="edge5" class="edge">
<title>GenreViewComponent&#45;&gt;AppModule</title>
<path fill="none" stroke="black" d="M1338,-85.04C1338,-100.37 1338,-119.8 1338,-119.8 1338,-119.8 1226.98,-119.8 1226.98,-119.8"/>
<polygon fill="black" stroke="black" points="1226.98,-116.3 1216.98,-119.8 1226.98,-123.3 1226.98,-116.3"/>
</g>
<!-- MovieCardComponent -->
<g id="node6" class="node">
<title>MovieCardComponent</title>
<polygon fill="#ffffb3" stroke="black" points="1247.59,-84.8 1102.41,-84.8 1102.41,-48.8 1247.59,-48.8 1247.59,-84.8"/>
<text text-anchor="middle" x="1175" y="-62.6" font-family="Times,serif" font-size="14.00">MovieCardComponent</text>
</g>
<!-- MovieCardComponent&#45;&gt;AppModule -->
<g id="edge6" class="edge">
<title>MovieCardComponent&#45;&gt;AppModule</title>
<path fill="none" stroke="black" d="M1175,-84.91C1175,-84.91 1175,-103.79 1175,-103.79"/>
<polygon fill="black" stroke="black" points="1171.5,-103.79 1175,-113.79 1178.5,-103.79 1171.5,-103.79"/>
</g>
<!-- NavbarComponent -->
<g id="node7" class="node">
<title>NavbarComponent</title>
<polygon fill="#ffffb3" stroke="black" points="1084.03,-84.8 961.97,-84.8 961.97,-48.8 1084.03,-48.8 1084.03,-84.8"/>
<text text-anchor="middle" x="1023" y="-62.6" font-family="Times,serif" font-size="14.00">NavbarComponent</text>
</g>
<!-- NavbarComponent&#45;&gt;AppModule -->
<g id="edge7" class="edge">
<title>NavbarComponent&#45;&gt;AppModule</title>
<path fill="none" stroke="black" d="M1023,-85.04C1023,-100.37 1023,-119.8 1023,-119.8 1023,-119.8 1123.06,-119.8 1123.06,-119.8"/>
<polygon fill="black" stroke="black" points="1123.06,-123.3 1133.06,-119.8 1123.06,-116.3 1123.06,-123.3"/>
</g>
<!-- SynopsisViewComponent -->
<g id="node8" class="node">
<title>SynopsisViewComponent</title>
<polygon fill="#ffffb3" stroke="black" points="944.21,-84.8 781.79,-84.8 781.79,-48.8 944.21,-48.8 944.21,-84.8"/>
<text text-anchor="middle" x="863" y="-62.6" font-family="Times,serif" font-size="14.00">SynopsisViewComponent</text>
</g>
<!-- SynopsisViewComponent&#45;&gt;AppModule -->
<g id="edge8" class="edge">
<title>SynopsisViewComponent&#45;&gt;AppModule</title>
<path fill="none" stroke="black" d="M863,-84.83C863,-101.86 863,-124.8 863,-124.8 863,-124.8 1123.25,-124.8 1123.25,-124.8"/>
<polygon fill="black" stroke="black" points="1123.25,-128.3 1133.25,-124.8 1123.25,-121.3 1123.25,-128.3"/>
</g>
<!-- UserLoginFormComponent -->
<g id="node9" class="node">
<title>UserLoginFormComponent</title>
<polygon fill="#ffffb3" stroke="black" points="763.54,-84.8 592.46,-84.8 592.46,-48.8 763.54,-48.8 763.54,-84.8"/>
<text text-anchor="middle" x="678" y="-62.6" font-family="Times,serif" font-size="14.00">UserLoginFormComponent</text>
</g>
<!-- UserLoginFormComponent&#45;&gt;AppModule -->
<g id="edge9" class="edge">
<title>UserLoginFormComponent&#45;&gt;AppModule</title>
<path fill="none" stroke="black" d="M678,-85.02C678,-103.63 678,-129.8 678,-129.8 678,-129.8 1123.05,-129.8 1123.05,-129.8"/>
<polygon fill="black" stroke="black" points="1123.05,-133.3 1133.05,-129.8 1123.05,-126.3 1123.05,-133.3"/>
</g>
<!-- UserProfileComponent -->
<g id="node10" class="node">
<title>UserProfileComponent</title>
<polygon fill="#ffffb3" stroke="black" points="573.86,-84.8 428.14,-84.8 428.14,-48.8 573.86,-48.8 573.86,-84.8"/>
<text text-anchor="middle" x="501" y="-62.6" font-family="Times,serif" font-size="14.00">UserProfileComponent</text>
</g>
<!-- UserProfileComponent&#45;&gt;AppModule -->
<g id="edge10" class="edge">
<title>UserProfileComponent&#45;&gt;AppModule</title>
<path fill="none" stroke="black" d="M501,-85.02C501,-105.17 501,-134.8 501,-134.8 501,-134.8 1123.09,-134.8 1123.09,-134.8"/>
<polygon fill="black" stroke="black" points="1123.09,-138.3 1133.09,-134.8 1123.09,-131.3 1123.09,-138.3"/>
</g>
<!-- UserRegistrationFormComponent -->
<g id="node11" class="node">
<title>UserRegistrationFormComponent</title>
<polygon fill="#ffffb3" stroke="black" points="410.03,-84.8 203.97,-84.8 203.97,-48.8 410.03,-48.8 410.03,-84.8"/>
<text text-anchor="middle" x="307" y="-62.6" font-family="Times,serif" font-size="14.00">UserRegistrationFormComponent</text>
</g>
<!-- UserRegistrationFormComponent&#45;&gt;AppModule -->
<g id="edge11" class="edge">
<title>UserRegistrationFormComponent&#45;&gt;AppModule</title>
<path fill="none" stroke="black" d="M307,-84.84C307,-106.46 307,-139.8 307,-139.8 307,-139.8 1123.13,-139.8 1123.13,-139.8"/>
<polygon fill="black" stroke="black" points="1123.13,-143.3 1133.13,-139.8 1123.13,-136.3 1123.13,-143.3"/>
</g>
<!-- WelcomePageComponent -->
<g id="node12" class="node">
<title>WelcomePageComponent</title>
<polygon fill="#ffffb3" stroke="black" points="186.18,-84.8 23.82,-84.8 23.82,-48.8 186.18,-48.8 186.18,-84.8"/>
<text text-anchor="middle" x="105" y="-62.6" font-family="Times,serif" font-size="14.00">WelcomePageComponent</text>
</g>
<!-- WelcomePageComponent&#45;&gt;AppModule -->
<g id="edge12" class="edge">
<title>WelcomePageComponent&#45;&gt;AppModule</title>
<path fill="none" stroke="black" d="M105,-84.89C105,-107.93 105,-144.8 105,-144.8 105,-144.8 1123.05,-144.8 1123.05,-144.8"/>
<polygon fill="black" stroke="black" points="1123.05,-148.3 1133.05,-144.8 1123.05,-141.3 1123.05,-148.3"/>
</g>
<!-- AppComponent  -->
<g id="node15" class="node">
<title>AppComponent </title>
<polygon fill="#80b1d3" stroke="black" points="1229.44,-214.8 1120.56,-214.8 1120.56,-178.8 1229.44,-178.8 1229.44,-214.8"/>
<text text-anchor="middle" x="1175" y="-192.6" font-family="Times,serif" font-size="14.00">AppComponent </text>
</g>
<!-- AppModule&#45;&gt;AppComponent  -->
<g id="edge14" class="edge">
<title>AppModule&#45;&gt;AppComponent </title>
<path fill="none" stroke="black" stroke-dasharray="1,5" d="M1175,-149.91C1175,-149.91 1175,-168.79 1175,-168.79"/>
<polygon fill="black" stroke="black" points="1171.5,-168.79 1175,-178.79 1178.5,-168.79 1171.5,-168.79"/>
</g>
<!-- AppRoutingModule -->
<g id="node14" class="node">
<title>AppRoutingModule</title>
<polygon fill="#8dd3c7" stroke="black" points="2212.27,-84.8 2209.27,-88.8 2188.27,-88.8 2185.27,-84.8 2083.73,-84.8 2083.73,-48.8 2212.27,-48.8 2212.27,-84.8"/>
<text text-anchor="middle" x="2148" y="-62.6" font-family="Times,serif" font-size="14.00">AppRoutingModule</text>
</g>
<!-- AppRoutingModule&#45;&gt;AppModule -->
<g id="edge13" class="edge">
<title>AppRoutingModule&#45;&gt;AppModule</title>
<path fill="none" stroke="black" d="M2148,-84.89C2148,-107.93 2148,-144.8 2148,-144.8 2148,-144.8 1226.81,-144.8 1226.81,-144.8"/>
<polygon fill="black" stroke="black" points="1226.81,-141.3 1216.81,-144.8 1226.81,-148.3 1226.81,-141.3"/>
</g>
</g>
</svg>
