<?xml version="1.0" encoding="UTF-8" standalone="no"?>
<!DOCTYPE svg PUBLIC "-//W3C//DTD SVG 1.1//EN"
 "http://www.w3.org/Graphics/SVG/1.1/DTD/svg11.dtd">
<!-- Generated by graphviz version 2.47.3 (20210619.1520)
 -->
<!-- Title: dependencies Pages: 1 -->
<svg width="2244pt" height="247pt"
 viewBox="0.00 0.00 2244.00 246.80" xmlns="http://www.w3.org/2000/svg" xmlns:xlink="http://www.w3.org/1999/xlink">
<g id="graph0" class="graph" transform="scale(1 1) rotate(0) translate(4 242.8)">
<title>dependencies</title>
<polygon fill="white" stroke="transparent" points="-4,4 -4,-242.8 2240,-242.8 2240,4 -4,4"/>
<text text-anchor="middle" x="1118" y="-8.2" font-family="sans-serif" font-size="14.00">dependencies</text>
<g id="clust1" class="cluster">
<title>cluster_AppModule</title>
<polygon fill="none" stroke="black" stroke-dasharray="1,5" points="8,-32.8 8,-230.8 2228,-230.8 2228,-32.8 8,-32.8"/>
</g>
<g id="clust2" class="cluster">
<title>cluster_AppModule_declarations</title>
<polygon fill="none" stroke="black" points="168,-40.8 168,-92.8 2220,-92.8 2220,-40.8 168,-40.8"/>
</g>
<g id="clust15" class="cluster">
<title>cluster_AppModule_imports</title>
<polygon fill="none" stroke="black" points="16,-40.8 16,-92.8 160,-92.8 160,-40.8 16,-40.8"/>
</g>
<g id="clust17" class="cluster">
<title>cluster_AppModule_bootstrap</title>
<polygon fill="none" stroke="black" points="1113,-170.8 1113,-222.8 1237,-222.8 1237,-170.8 1113,-170.8"/>
</g>
<!-- AppComponent -->
<g id="node1" class="node">
<title>AppComponent</title>
<polygon fill="#ffffb3" stroke="black" points="2211.94,-84.8 2106.06,-84.8 2106.06,-48.8 2211.94,-48.8 2211.94,-84.8"/>
<text text-anchor="middle" x="2159" y="-62.6" font-family="Times,serif" font-size="14.00">AppComponent</text>
</g>
<!-- AppModule -->
<g id="node13" class="node">
<title>AppModule</title>
<polygon fill="#8dd3c7" stroke="black" points="1216.66,-149.8 1213.66,-153.8 1192.66,-153.8 1189.66,-149.8 1133.34,-149.8 1133.34,-113.8 1216.66,-113.8 1216.66,-149.8"/>
<text text-anchor="middle" x="1175" y="-127.6" font-family="Times,serif" font-size="14.00">AppModule</text>
</g>
<!-- AppComponent&#45;&gt;AppModule -->
<g id="edge1" class="edge">
<title>AppComponent&#45;&gt;AppModule</title>
<path fill="none" stroke="black" d="M2159,-84.89C2159,-107.93 2159,-144.8 2159,-144.8 2159,-144.8 1226.97,-144.8 1226.97,-144.8"/>
<polygon fill="black" stroke="black" points="1226.97,-141.3 1216.97,-144.8 1226.97,-148.3 1226.97,-141.3"/>
</g>
<!-- DirectorViewComponent -->
<g id="node2" class="node">
<title>DirectorViewComponent</title>
<polygon fill="#ffffb3" stroke="black" points="2088.29,-84.8 1929.71,-84.8 1929.71,-48.8 2088.29,-48.8 2088.29,-84.8"/>
<text text-anchor="middle" x="2009" y="-62.6" font-family="Times,serif" font-size="14.00">DirectorViewComponent</text>
</g>
<!-- DirectorViewComponent&#45;&gt;AppModule -->
<g id="edge2" class="edge">
<title>DirectorViewComponent&#45;&gt;AppModule</title>
<path fill="none" stroke="black" d="M2009,-84.84C2009,-106.46 2009,-139.8 2009,-139.8 2009,-139.8 1226.93,-139.8 1226.93,-139.8"/>
<polygon fill="black" stroke="black" points="1226.93,-136.3 1216.93,-139.8 1226.93,-143.3 1226.93,-136.3"/>
</g>
<!-- EditProfileComponent -->
<g id="node3" class="node">
<title>EditProfileComponent</title>
<polygon fill="#ffffb3" stroke="black" points="1911.27,-84.8 1768.73,-84.8 1768.73,-48.8 1911.27,-48.8 1911.27,-84.8"/>
<text text-anchor="middle" x="1840" y="-62.6" font-family="Times,serif" font-size="14.00">EditProfileComponent</text>
</g>
<!-- EditProfileComponent&#45;&gt;AppModule -->
<g id="edge3" class="edge">
<title>EditProfileComponent&#45;&gt;AppModule</title>
<path fill="none" stroke="black" d="M1840,-85.02C1840,-105.17 1840,-134.8 1840,-134.8 1840,-134.8 1226.85,-134.8 1226.85,-134.8"/>
<polygon fill="black" stroke="black" points="1226.85,-131.3 1216.85,-134.8 1226.85,-138.3 1226.85,-131.3"/>
</g>
<!-- FavoriteMoviesComponent -->
<g id="node4" class="node">
<title>FavoriteMoviesComponent</title>
<polygon fill="#ffffb3" stroke="black" points="1750.98,-84.8 1581.02,-84.8 1581.02,-48.8 1750.98,-48.8 1750.98,-84.8"/>
<text text-anchor="middle" x="1666" y="-62.6" font-family="Times,serif" font-size="14.00">FavoriteMoviesComponent</text>
</g>
<!-- FavoriteMoviesComponent&#45;&gt;AppModule -->
<g id="edge4" class="edge">
<title>FavoriteMoviesComponent&#45;&gt;AppModule</title>
<path fill="none" stroke="black" d="M1666,-85.02C1666,-103.63 1666,-129.8 1666,-129.8 1666,-129.8 1226.86,-129.8 1226.86,-129.8"/>
<polygon fill="black" stroke="black" points="1226.86,-126.3 1216.86,-129.8 1226.86,-133.3 1226.86,-126.3"/>
</g>
<!-- GenreViewComponent -->
<g id="node5" class="node">
<title>GenreViewComponent</title>
<polygon fill="#ffffb3" stroke="black" points="1562.85,-84.8 1417.15,-84.8 1417.15,-48.8 1562.85,-48.8 1562.85,-84.8"/>
<text text-anchor="middle" x="1490" y="-62.6" font-family="Times,serif" font-size="14.00">GenreViewComponent</text>
</g>
<!-- GenreViewComponent&#45;&gt;AppModule -->
<g id="edge5" class="edge">
<title>GenreViewComponent&#45;&gt;AppModule</title>
<path fill="none" stroke="black" d="M1490,-84.83C1490,-101.86 1490,-124.8 1490,-124.8 1490,-124.8 1226.83,-124.8 1226.83,-124.8"/>
<polygon fill="black" stroke="black" points="1226.83,-121.3 1216.83,-124.8 1226.83,-128.3 1226.83,-121.3"/>
</g>
<!-- MovieCardComponent -->
<g id="node6" class="node">
<title>MovieCardComponent</title>
<polygon fill="#ffffb3" stroke="black" points="1399.59,-84.8 1254.41,-84.8 1254.41,-48.8 1399.59,-48.8 1399.59,-84.8"/>
<text text-anchor="middle" x="1327" y="-62.6" font-family="Times,serif" font-size="14.00">MovieCardComponent</text>
</g>
<!-- MovieCardComponent&#45;&gt;AppModule -->
<g id="edge6" class="edge">
<title>MovieCardComponent&#45;&gt;AppModule</title>
<path fill="none" stroke="black" d="M1327,-85.04C1327,-100.37 1327,-119.8 1327,-119.8 1327,-119.8 1226.94,-119.8 1226.94,-119.8"/>
<polygon fill="black" stroke="black" points="1226.94,-116.3 1216.94,-119.8 1226.94,-123.3 1226.94,-116.3"/>
</g>
<!-- NavbarComponent -->
<g id="node7" class="node">
<title>NavbarComponent</title>
<polygon fill="#ffffb3" stroke="black" points="1236.03,-84.8 1113.97,-84.8 1113.97,-48.8 1236.03,-48.8 1236.03,-84.8"/>
<text text-anchor="middle" x="1175" y="-62.6" font-family="Times,serif" font-size="14.00">NavbarComponent</text>
</g>
<!-- NavbarComponent&#45;&gt;AppModule -->
<g id="edge7" class="edge">
<title>NavbarComponent&#45;&gt;AppModule</title>
<path fill="none" stroke="black" d="M1175,-84.91C1175,-84.91 1175,-103.79 1175,-103.79"/>
<polygon fill="black" stroke="black" points="1171.5,-103.79 1175,-113.79 1178.5,-103.79 1171.5,-103.79"/>
</g>
<!-- SynopsisViewComponent -->
<g id="node8" class="node">
<title>SynopsisViewComponent</title>
<polygon fill="#ffffb3" stroke="black" points="1096.21,-84.8 933.79,-84.8 933.79,-48.8 1096.21,-48.8 1096.21,-84.8"/>
<text text-anchor="middle" x="1015" y="-62.6" font-family="Times,serif" font-size="14.00">SynopsisViewComponent</text>
</g>
<!-- SynopsisViewComponent&#45;&gt;AppModule -->
<g id="edge8" class="edge">
<title>SynopsisViewComponent&#45;&gt;AppModule</title>
<path fill="none" stroke="black" d="M1015,-85.04C1015,-100.37 1015,-119.8 1015,-119.8 1015,-119.8 1122.96,-119.8 1122.96,-119.8"/>
<polygon fill="black" stroke="black" points="1122.96,-123.3 1132.96,-119.8 1122.96,-116.3 1122.96,-123.3"/>
</g>
<!-- UserLoginFormComponent -->
<g id="node9" class="node">
<title>UserLoginFormComponent</title>
<polygon fill="#ffffb3" stroke="black" points="915.54,-84.8 744.46,-84.8 744.46,-48.8 915.54,-48.8 915.54,-84.8"/>
<text text-anchor="middle" x="830" y="-62.6" font-family="Times,serif" font-size="14.00">UserLoginFormComponent</text>
</g>
<!-- UserLoginFormComponent&#45;&gt;AppModule -->
<g id="edge9" class="edge">
<title>UserLoginFormComponent&#45;&gt;AppModule</title>
<path fill="none" stroke="black" d="M830,-84.83C830,-101.86 830,-124.8 830,-124.8 830,-124.8 1123.04,-124.8 1123.04,-124.8"/>
<polygon fill="black" stroke="black" points="1123.04,-128.3 1133.04,-124.8 1123.04,-121.3 1123.04,-128.3"/>
</g>
<!-- UserProfileComponent -->
<g id="node10" class="node">
<title>UserProfileComponent</title>
<polygon fill="#ffffb3" stroke="black" points="725.86,-84.8 580.14,-84.8 580.14,-48.8 725.86,-48.8 725.86,-84.8"/>
<text text-anchor="middle" x="653" y="-62.6" font-family="Times,serif" font-size="14.00">UserProfileComponent</text>
</g>
<!-- UserProfileComponent&#45;&gt;AppModule -->
<g id="edge10" class="edge">
<title>UserProfileComponent&#45;&gt;AppModule</title>
<path fill="none" stroke="black" d="M653,-85.02C653,-103.63 653,-129.8 653,-129.8 653,-129.8 1123.16,-129.8 1123.16,-129.8"/>
<polygon fill="black" stroke="black" points="1123.16,-133.3 1133.16,-129.8 1123.16,-126.3 1123.16,-133.3"/>
</g>
<!-- UserRegistrationFormComponent -->
<g id="node11" class="node">
<title>UserRegistrationFormComponent</title>
<polygon fill="#ffffb3" stroke="black" points="562.03,-84.8 355.97,-84.8 355.97,-48.8 562.03,-48.8 562.03,-84.8"/>
<text text-anchor="middle" x="459" y="-62.6" font-family="Times,serif" font-size="14.00">UserRegistrationFormComponent</text>
</g>
<!-- UserRegistrationFormComponent&#45;&gt;AppModule -->
<g id="edge11" class="edge">
<title>UserRegistrationFormComponent&#45;&gt;AppModule</title>
<path fill="none" stroke="black" d="M459,-85.02C459,-105.17 459,-134.8 459,-134.8 459,-134.8 1123.15,-134.8 1123.15,-134.8"/>
<polygon fill="black" stroke="black" points="1123.15,-138.3 1133.15,-134.8 1123.15,-131.3 1123.15,-138.3"/>
</g>
<!-- WelcomePageComponent -->
<g id="node12" class="node">
<title>WelcomePageComponent</title>
<polygon fill="#ffffb3" stroke="black" points="338.18,-84.8 175.82,-84.8 175.82,-48.8 338.18,-48.8 338.18,-84.8"/>
<text text-anchor="middle" x="257" y="-62.6" font-family="Times,serif" font-size="14.00">WelcomePageComponent</text>
</g>
<!-- WelcomePageComponent&#45;&gt;AppModule -->
<g id="edge12" class="edge">
<title>WelcomePageComponent&#45;&gt;AppModule</title>
<path fill="none" stroke="black" d="M257,-84.84C257,-106.46 257,-139.8 257,-139.8 257,-139.8 1123.17,-139.8 1123.17,-139.8"/>
<polygon fill="black" stroke="black" points="1123.17,-143.3 1133.17,-139.8 1123.17,-136.3 1123.17,-143.3"/>
</g>
<!-- AppComponent  -->
<g id="node15" class="node">
<title>AppComponent </title>
<polygon fill="#80b1d3" stroke="black" points="1229.44,-214.8 1120.56,-214.8 1120.56,-178.8 1229.44,-178.8 1229.44,-214.8"/>
<text text-anchor="middle" x="1175" y="-192.6" font-family="Times,serif" font-size="14.00">AppComponent </text>
</g>
<!-- AppModule&#45;&gt;AppComponent  -->
<g id="edge14" class="edge">
<title>AppModule&#45;&gt;AppComponent </title>
<path fill="none" stroke="black" stroke-dasharray="1,5" d="M1175,-149.91C1175,-149.91 1175,-168.79 1175,-168.79"/>
<polygon fill="black" stroke="black" points="1171.5,-168.79 1175,-178.79 1178.5,-168.79 1171.5,-168.79"/>
</g>
<!-- AppRoutingModule -->
<g id="node14" class="node">
<title>AppRoutingModule</title>
<polygon fill="#8dd3c7" stroke="black" points="152.27,-84.8 149.27,-88.8 128.27,-88.8 125.27,-84.8 23.73,-84.8 23.73,-48.8 152.27,-48.8 152.27,-84.8"/>
<text text-anchor="middle" x="88" y="-62.6" font-family="Times,serif" font-size="14.00">AppRoutingModule</text>
</g>
<!-- AppRoutingModule&#45;&gt;AppModule -->
<g id="edge13" class="edge">
<title>AppRoutingModule&#45;&gt;AppModule</title>
<path fill="none" stroke="black" d="M88,-84.89C88,-107.93 88,-144.8 88,-144.8 88,-144.8 1123.05,-144.8 1123.05,-144.8"/>
<polygon fill="black" stroke="black" points="1123.05,-148.3 1133.05,-144.8 1123.05,-141.3 1123.05,-148.3"/>
</g>
</g>
</svg>
